<?xml version="1.0" encoding="UTF-8" standalone="no"?><!-- Generator: Gravit.io --><svg xmlns="http://www.w3.org/2000/svg" xmlns:xlink="http://www.w3.org/1999/xlink" style="isolation:isolate" viewBox="1264.142 2820.543 1105.067 282.711" width="1105.067pt" height="282.711pt"><g><g><g><path d=" M 1337.753 2876.18 Q 1307.903 3055.489 1323.543 3057.609 C 1360.867 3064.136 1388.195 3068.914 1425.519 3075.441 Q 1436.566 3077.373 1473.72 2899.956 L 1337.753 2876.18 Z " fill="rgb(255,255,255)" vector-effect="non-scaling-stroke" stroke-width="10" stroke="rgb(51,51,51)" stroke-linejoin="miter" stroke-linecap="square" stroke-miterlimit="3"/><path d=" M 1329.255 2874.694 L 1332.227 2857.698 L 1436.886 2875.999 L 1439.858 2859.003 L 1480.111 2866.042 L 1477.139 2883.038 L 1485.19 2884.446 L 1482.218 2901.442 L 1329.255 2874.694 Z " fill="rgb(255,255,255)" vector-effect="non-scaling-stroke" stroke-width="10" stroke="rgb(51,51,51)" stroke-linejoin="round" stroke-linecap="square" stroke-miterlimit="3"/><path d=" M 1283.632 3054.553 L 1289.904 3052.91 L 1294.705 3071.238 L 1310.448 3080.171 L 1312.049 3086.28 L 1290.033 3078.99 L 1283.632 3054.553 Z " fill="rgb(51,51,51)"/><path d=" M 1264.142 3059.74 L 1272.488 3057.554 L 1279.046 3082.59 L 1300.108 3094.909 L 1302.294 3103.254 L 1272.886 3093.121 L 1264.142 3059.74 Z " fill="rgb(51,51,51)"/><path d=" M 1511.36 2870.726 L 1504.966 2871.798 L 1501.835 2853.112 L 1486.959 2842.798 L 1485.916 2836.57 L 1507.185 2845.812 L 1511.36 2870.726 Z " fill="rgb(51,51,51)"/><path d=" M 1531.238 2867.315 L 1522.73 2868.741 L 1518.453 2843.216 L 1498.585 2829.051 L 1497.159 2820.543 L 1525.535 2833.282 L 1531.238 2867.315 Z " fill="rgb(51,51,51)"/><path d=" M 1411.299 3020.549 C 1410.133 3019.439 1405.031 3029.13 1401.286 3030.626 C 1397.542 3032.122 1396.404 3034.07 1393.263 3034.67 C 1390.122 3035.269 1382.934 3032.727 1378.179 3029.696 C 1373.425 3026.665 1370.731 3020.234 1366.08 3015.671 C 1361.429 3011.108 1353.881 3006.95 1353.713 3004.428 C 1353.544 3001.907 1354.698 2992.863 1357.961 2989.579 C 1361.223 2986.296 1371.008 2988.925 1378.051 2989.515 C 1385.094 2990.105 1397.993 2988.933 1406.196 2995.452 C 1414.399 3001.972 1423.155 3005.127 1417.301 3012.493 C 1411.446 3019.86 1412.419 3015.938 1409.277 3016.537 C 1406.136 3017.137 1398.544 3015.283 1394.194 3011.563 C 1389.844 3007.843 1388.501 2999.539 1387.101 2992.5 C 1385.701 2985.46 1385.233 2973.822 1386.042 2975.426 C 1386.851 2977.031 1395.446 2975.323 1400.099 2973.372 C 1404.751 2971.421 1415.741 2962.146 1417.108 2952.223 C 1418.475 2942.3 1421.823 2934.545 1413.032 2934.154 C 1404.24 2933.764 1408.053 2942.841 1403.019 2944.232 C 1397.984 2945.622 1392.448 2942.718 1387.935 2939.257 C 1383.422 2935.797 1382.872 2911.692 1377.253 2910.748 C 1371.634 2909.803 1375.014 2914.482 1372.787 2914.193 C 1370.56 2913.904 1375.356 2934.73 1383.923 2941.279 C 1392.491 2947.829 1395.162 2948.796 1402.024 2947.249 C 1408.886 2945.701 1406.914 2940.87 1410.047 2943.205 C 1413.181 2945.539 1411.131 2947.726 1411.074 2950.233 C 1411.018 2952.74 1405.193 2964.956 1398.077 2969.361 C 1390.961 2973.766 1385.362 2969.395 1380.008 2973.437 C 1374.655 2977.478 1377.758 3004.009 1390.182 3013.585 C 1402.606 3023.161 1403.296 3022.408 1411.299 3020.549 C 1419.302 3018.69 1422.168 3016.973 1424.329 3011.466 C 1426.49 3005.96 1415.015 2997.143 1407.191 2992.435 C 1399.367 2987.728 1389.1 2987.659 1379.046 2986.498 C 1368.991 2985.338 1363.055 2980.479 1355.939 2985.568 C 1348.822 2990.657 1346.149 2998.761 1348.975 3006.685 C 1351.8 3014.609 1360.223 3013.521 1365.085 3018.688 C 1369.948 3023.855 1369.95 3031.801 1376.19 3035.729 C 1382.429 3039.657 1388.545 3040.57 1395.285 3038.682 C 1402.025 3036.793 1400.373 3035.81 1403.308 3034.638 C 1406.243 3033.465 1413.727 3030.182 1413.321 3024.56 C 1412.915 3018.939 1412.465 3021.659 1411.299 3020.549 Z " fill="rgb(23,105,170)"/><path d=" M 1423.357 3001.701 C 1421.804 3003.578 1415.763 3003.855 1412.202 3004.299 C 1408.642 3004.744 1407.592 3005.961 1402.164 3003.923 C 1396.737 3001.886 1392.647 3002.386 1393.243 3000.574 C 1393.838 2998.761 1394.76 2996.308 1395.476 2994.626 C 1398.233 2994.337 1397.744 2993.781 1402.54 2993.885 C 1407.336 2993.989 1408.145 2993.869 1409.604 2993.145 C 1411.064 2992.42 1412.346 2992.115 1413.695 2991.287 C 1415.044 2990.459 1421.724 2988.494 1423.733 2991.663 C 1425.742 2994.832 1424.91 2999.824 1423.357 3001.701 Z " fill="rgb(23,105,170)"/><path d=" M 1413.308 3028.466 C 1412.267 3029.432 1413.049 3025.993 1411.451 3024.375 C 1409.853 3022.758 1392.816 3014.5 1391.75 3013.586 C 1390.685 3012.672 1389.336 3011.966 1389.893 3009.495 C 1390.443 3007.747 1395.122 2995.342 1395.476 2994.626 C 1395.804 2994.014 1396.674 2997.536 1397.333 2998.716 C 1397.993 2999.897 1398.959 3001.617 1402.164 3003.923 C 1405.37 3006.23 1414.118 3011.319 1415.917 3012.48 C 1417.478 3013.808 1418.5 3014.637 1417.774 3016.57 C 1417.049 3018.504 1414.349 3027.5 1413.308 3028.466 Z " fill="rgb(3,169,244)"/><path d=" M 1433.503 2974.679 C 1431.95 2976.556 1425.908 2976.833 1422.348 2977.277 C 1418.788 2977.722 1417.737 2978.939 1412.31 2976.901 C 1406.883 2974.864 1402.793 2975.364 1403.388 2973.552 C 1403.984 2971.739 1404.905 2969.286 1405.622 2967.604 C 1408.379 2967.315 1407.89 2966.759 1412.686 2966.863 C 1417.482 2966.967 1418.291 2966.847 1419.75 2966.123 C 1421.21 2965.398 1422.492 2965.093 1423.841 2964.265 C 1425.189 2963.437 1431.87 2961.472 1433.879 2964.641 C 1435.887 2967.811 1435.056 2972.802 1433.503 2974.679 Z " fill="rgb(23,105,170)"/><path d=" M 1423.454 3001.444 C 1422.412 3002.41 1423.195 2998.971 1421.596 2997.354 C 1419.998 2995.736 1402.961 2987.478 1401.896 2986.564 C 1400.831 2985.65 1399.482 2984.944 1400.039 2982.473 C 1400.589 2980.725 1405.268 2968.32 1405.622 2967.604 C 1405.95 2966.992 1406.819 2970.514 1407.479 2971.694 C 1408.138 2972.875 1409.104 2974.595 1412.31 2976.901 C 1415.516 2979.208 1424.264 2984.297 1426.063 2985.458 C 1427.624 2986.786 1428.646 2987.616 1427.92 2989.549 C 1427.194 2991.482 1424.495 3000.478 1423.454 3001.444 Z " fill="rgb(3,169,244)"/><path d=" M 1443.649 2947.657 C 1442.096 2949.534 1436.054 2949.811 1432.494 2950.255 C 1428.934 2950.7 1427.883 2951.917 1422.456 2949.879 C 1417.028 2947.842 1412.939 2948.342 1413.534 2946.53 C 1414.13 2944.718 1415.051 2942.264 1415.767 2940.582 C 1418.524 2940.293 1418.036 2939.737 1422.832 2939.841 C 1427.628 2939.946 1428.436 2939.825 1429.896 2939.101 C 1431.355 2938.376 1432.638 2938.071 1433.986 2937.243 C 1435.335 2936.415 1442.016 2934.45 1444.024 2937.619 C 1446.033 2940.789 1445.202 2945.78 1443.649 2947.657 Z " fill="rgb(23,105,170)"/><path d=" M 1433.599 2974.422 C 1432.558 2975.388 1433.34 2971.949 1431.742 2970.332 C 1430.144 2968.714 1413.107 2960.456 1412.042 2959.542 C 1410.977 2958.628 1409.627 2957.922 1410.184 2955.451 C 1410.735 2953.703 1415.414 2941.298 1415.767 2940.582 C 1416.095 2939.97 1416.965 2943.492 1417.625 2944.672 C 1418.284 2945.853 1419.25 2947.573 1422.456 2949.879 C 1425.661 2952.186 1434.41 2957.275 1436.208 2958.436 C 1437.77 2959.764 1438.792 2960.594 1438.066 2962.527 C 1437.34 2964.46 1434.641 2973.456 1433.599 2974.422 Z " fill="rgb(3,169,244)"/><path d=" M 1375.899 2978.401 C 1374.934 2980.638 1369.212 2982.596 1365.92 2984.021 C 1362.627 2985.445 1361.959 2986.908 1356.178 2986.473 C 1350.397 2986.038 1346.612 2987.664 1346.675 2985.757 C 1346.739 2983.851 1346.936 2981.238 1347.152 2979.422 C 1349.718 2978.372 1349.093 2977.976 1353.726 2976.732 C 1358.359 2975.488 1359.102 2975.145 1360.3 2974.041 C 1361.498 2972.936 1362.643 2972.284 1363.706 2971.112 C 1364.768 2969.939 1370.631 2966.18 1373.447 2968.659 C 1376.263 2971.139 1376.864 2976.164 1375.899 2978.401 Z " fill="rgb(23,105,170)"/><path d=" M 1373.753 3006.909 C 1373.024 3008.128 1372.811 3004.608 1370.824 3003.503 C 1368.837 3002.398 1350.168 2999.245 1348.889 2998.666 C 1347.611 2998.087 1346.118 2997.788 1345.96 2995.26 C 1345.998 2993.428 1347.014 2980.208 1347.152 2979.422 C 1347.296 2978.742 1349.118 2981.88 1350.082 2982.828 C 1351.045 2983.777 1352.455 2985.157 1356.178 2986.473 C 1359.902 2987.788 1369.726 2990.222 1371.778 2990.833 C 1373.649 2991.67 1374.862 2992.18 1374.707 2994.239 C 1374.552 2996.298 1374.482 3005.69 1373.753 3006.909 Z " fill="rgb(3,169,244)"/><path d=" M 1378.066 2949.618 C 1377.101 2951.855 1371.379 2953.814 1368.086 2955.238 C 1364.793 2956.663 1364.126 2958.126 1358.345 2957.69 C 1352.564 2957.255 1348.778 2958.882 1348.842 2956.975 C 1348.906 2955.068 1349.103 2952.455 1349.319 2950.64 C 1351.885 2949.59 1351.26 2949.193 1355.893 2947.949 C 1360.526 2946.705 1361.268 2946.363 1362.466 2945.258 C 1363.664 2944.154 1364.81 2943.502 1365.872 2942.329 C 1366.935 2941.157 1372.797 2937.398 1375.614 2939.877 C 1378.43 2942.357 1379.031 2947.381 1378.066 2949.618 Z " fill="rgb(23,105,170)"/><path d=" M 1375.92 2978.127 C 1375.191 2979.346 1374.978 2975.826 1372.991 2974.721 C 1371.003 2973.615 1352.335 2970.463 1351.056 2969.884 C 1349.777 2969.305 1348.285 2969.006 1348.127 2966.478 C 1348.165 2964.645 1349.18 2951.426 1349.319 2950.64 C 1349.462 2949.96 1351.284 2953.097 1352.248 2954.046 C 1353.212 2954.994 1354.621 2956.375 1358.345 2957.69 C 1362.069 2959.006 1371.893 2961.44 1373.945 2962.05 C 1375.815 2962.887 1377.029 2963.397 1376.874 2965.456 C 1376.719 2967.515 1376.649 2976.907 1375.92 2978.127 Z " fill="rgb(3,169,244)"/><path d=" M 1380.233 2920.836 C 1379.268 2923.073 1373.546 2925.031 1370.253 2926.456 C 1366.96 2927.88 1366.293 2929.343 1360.512 2928.908 C 1354.731 2928.473 1350.945 2930.099 1351.009 2928.193 C 1351.073 2926.286 1351.27 2923.673 1351.486 2921.857 C 1354.051 2920.807 1353.426 2920.411 1358.059 2919.167 C 1362.693 2917.923 1363.435 2917.58 1364.633 2916.476 C 1365.831 2915.372 1366.977 2914.72 1368.039 2913.547 C 1369.102 2912.374 1374.964 2908.615 1377.78 2911.095 C 1380.597 2913.574 1381.197 2918.599 1380.233 2920.836 Z " fill="rgb(23,105,170)"/><path d=" M 1378.087 2949.344 C 1377.358 2950.564 1377.145 2947.043 1375.157 2945.938 C 1373.17 2944.833 1354.501 2941.68 1353.223 2941.101 C 1351.944 2940.522 1350.451 2940.224 1350.294 2937.695 C 1350.332 2935.863 1351.347 2922.643 1351.486 2921.857 C 1351.629 2921.178 1353.451 2924.315 1354.415 2925.263 C 1355.379 2926.212 1356.788 2927.592 1360.512 2928.908 C 1364.235 2930.224 1374.059 2932.657 1376.111 2933.268 C 1377.982 2934.105 1379.195 2934.615 1379.04 2936.674 C 1378.885 2938.733 1378.815 2948.125 1378.087 2949.344 Z " fill="rgb(3,169,244)"/></g></g><path d=" M 2025.598 3009.348 L 2025.598 3009.348 L 2025.598 3009.348 Q 2049.199 3009.348 2049.364 2993.67 L 2049.364 2993.67 L 2049.364 2993.67 Q 2049.364 2987.233 2040.286 2983.437 L 2040.286 2983.437 L 2040.286 2983.437 Q 2036.326 2981.787 2031.127 2980.467 L 2031.127 2980.467 L 2031.127 2980.467 Q 2025.928 2979.146 2020.647 2977.661 L 2020.647 2977.661 L 2020.647 2977.661 Q 2015.366 2976.176 2010.084 2974.278 L 2010.084 2974.278 L 2010.084 2974.278 Q 2004.803 2972.38 2000.842 2969.409 L 2000.842 2969.409 L 2000.842 2969.409 Q 1991.93 2962.642 1991.765 2951.585 L 1991.765 2951.585 L 1991.765 2951.585 Q 1991.765 2939.702 2000.842 2932.11 L 2000.842 2932.11 L 2000.842 2932.11 Q 2010.579 2923.858 2026.918 2923.858 L 2026.918 2923.858 L 2026.918 2923.858 Q 2041.772 2923.858 2053.655 2928.314 L 2053.655 2928.314 L 2053.655 2928.314 Q 2057.451 2929.635 2057.616 2933.761 L 2057.616 2933.761 L 2057.616 2933.761 Q 2057.616 2935.741 2056.213 2937.556 L 2056.213 2937.556 L 2056.213 2937.556 Q 2054.81 2939.372 2053.077 2939.372 L 2053.077 2939.372 L 2053.077 2939.372 Q 2051.344 2939.372 2048.373 2938.382 L 2048.373 2938.382 L 2048.373 2938.382 Q 2039.461 2935.246 2028.239 2935.246 L 2028.239 2935.246 L 2028.239 2935.246 Q 2017.841 2935.246 2011.075 2939.207 L 2011.075 2939.207 L 2011.075 2939.207 Q 2004.143 2943.333 2004.143 2950.595 L 2004.143 2950.595 L 2004.143 2950.595 Q 2004.143 2958.186 2013.055 2962.312 L 2013.055 2962.312 L 2013.055 2962.312 Q 2017.181 2964.128 2022.297 2965.366 L 2022.297 2965.366 L 2022.297 2965.366 Q 2027.413 2966.603 2032.86 2967.924 L 2032.86 2967.924 L 2032.86 2967.924 Q 2038.306 2969.244 2043.34 2971.142 L 2043.34 2971.142 L 2043.34 2971.142 Q 2048.373 2973.04 2052.499 2975.846 L 2052.499 2975.846 L 2052.499 2975.846 Q 2061.411 2982.282 2061.577 2994.66 L 2061.577 2994.66 L 2061.577 2994.66 Q 2061.577 3006.213 2052.169 3013.474 L 2052.169 3013.474 L 2052.169 3013.474 Q 2042.597 3020.901 2026.918 3020.901 L 2026.918 3020.901 L 2026.918 3020.901 Q 2009.754 3020.901 1994.736 3014.465 L 1994.736 3014.465 L 1994.736 3014.465 Q 1993.25 3013.805 1992.095 3012.237 L 1992.095 3012.237 L 1992.095 3012.237 Q 1990.94 3010.669 1990.94 3008.688 L 1990.94 3008.688 L 1990.94 3008.688 Q 1990.94 3006.708 1992.425 3004.975 L 1992.425 3004.975 L 1992.425 3004.975 Q 1993.911 3003.242 1995.808 3003.242 L 1995.808 3003.242 L 1995.808 3003.242 Q 1997.706 3003.242 2000.595 3004.562 L 2000.595 3004.562 L 2000.595 3004.562 Q 2003.483 3005.883 2010.084 3007.616 L 2010.084 3007.616 L 2010.084 3007.616 Q 2016.686 3009.348 2025.598 3009.348 Z  M 2112.409 2960.662 L 2112.409 2960.662 L 2112.409 2960.662 Q 2100.526 2960.662 2090.128 2973.7 L 2090.128 2973.7 L 2090.128 3014.135 L 2090.128 3014.135 Q 2090.128 3016.61 2088.313 3018.426 L 2088.313 3018.426 L 2088.313 3018.426 Q 2086.497 3020.241 2084.022 3020.241 L 2084.022 3020.241 L 2084.022 3020.241 Q 2081.546 3020.241 2079.731 3018.426 L 2079.731 3018.426 L 2079.731 3018.426 Q 2077.915 3016.61 2077.915 3014.135 L 2077.915 3014.135 L 2077.915 2926.334 L 2077.915 2926.334 Q 2077.915 2923.693 2079.648 2921.96 L 2079.648 2921.96 L 2079.648 2921.96 Q 2081.381 2920.227 2084.022 2920.227 L 2084.022 2920.227 L 2084.022 2920.227 Q 2086.497 2920.227 2088.313 2921.96 L 2088.313 2921.96 L 2088.313 2921.96 Q 2090.128 2923.693 2090.128 2926.334 L 2090.128 2926.334 L 2090.128 2961.817 L 2090.128 2961.817 Q 2095.575 2956.206 2099.536 2953.73 L 2099.536 2953.73 L 2099.536 2953.73 Q 2107.127 2949.274 2114.141 2949.274 L 2114.141 2949.274 L 2114.141 2949.274 Q 2121.156 2949.274 2125.612 2951.337 L 2125.612 2951.337 L 2125.612 2951.337 Q 2130.068 2953.4 2133.203 2957.196 L 2133.203 2957.196 L 2133.203 2957.196 Q 2139.475 2964.623 2139.475 2975.68 L 2139.475 2975.68 L 2139.475 3014.135 L 2139.475 3014.135 Q 2139.475 3016.61 2137.66 3018.426 L 2137.66 3018.426 L 2137.66 3018.426 Q 2135.844 3020.241 2133.369 3020.241 L 2133.369 3020.241 L 2133.369 3020.241 Q 2130.893 3020.241 2129.078 3018.426 L 2129.078 3018.426 L 2129.078 3018.426 Q 2127.262 3016.61 2127.262 3014.135 L 2127.262 3014.135 L 2127.262 2977.001 L 2127.262 2977.001 Q 2127.262 2969.409 2123.796 2965.035 L 2123.796 2965.035 L 2123.796 2965.035 Q 2120.33 2960.662 2112.409 2960.662 Z  M 2162.58 2954.06 L 2162.58 2954.06 L 2162.58 2954.06 Q 2173.968 2949.109 2186.181 2949.274 L 2186.181 2949.274 L 2186.181 2949.274 Q 2199.879 2949.274 2207.471 2957.691 L 2207.471 2957.691 L 2207.471 2957.691 Q 2214.238 2964.953 2214.403 2975.846 L 2214.403 2975.846 L 2214.403 3014.135 L 2214.403 3014.135 Q 2214.403 3016.61 2212.505 3018.426 L 2212.505 3018.426 L 2212.505 3018.426 Q 2210.607 3020.241 2207.966 3020.241 L 2207.966 3020.241 L 2207.966 3020.241 Q 2205.491 3020.241 2203.675 3018.426 L 2203.675 3018.426 L 2203.675 3018.426 Q 2201.86 3016.61 2201.86 3014.135 L 2201.86 3014.135 L 2201.86 3010.669 L 2201.86 3010.669 Q 2198.229 3014.465 2192.122 3017.683 L 2192.122 3017.683 L 2192.122 3017.683 Q 2186.016 3020.901 2176.609 3020.901 L 2176.609 3020.901 L 2176.609 3020.901 Q 2167.202 3020.901 2160.93 3015.455 L 2160.93 3015.455 L 2160.93 3015.455 Q 2154.494 3009.844 2154.494 3000.766 L 2154.494 3000.766 L 2154.494 3000.766 Q 2154.494 2990.699 2162.085 2984.923 L 2162.085 2984.923 L 2162.085 2984.923 Q 2170.337 2978.651 2185.521 2978.816 L 2185.521 2978.816 L 2201.86 2978.816 L 2201.86 2977.661 L 2201.86 2977.661 Q 2201.86 2968.584 2197.486 2964.788 L 2197.486 2964.788 L 2197.486 2964.788 Q 2193.113 2960.992 2183.87 2960.992 L 2183.87 2960.992 L 2183.87 2960.992 Q 2176.114 2960.992 2165.881 2964.128 L 2165.881 2964.128 L 2165.881 2964.128 Q 2164.891 2964.458 2163.488 2964.458 L 2163.488 2964.458 L 2163.488 2964.458 Q 2162.085 2964.458 2160.6 2963.055 L 2160.6 2963.055 L 2160.6 2963.055 Q 2159.115 2961.652 2159.032 2958.599 L 2159.032 2958.599 L 2159.032 2958.599 Q 2158.95 2955.546 2162.58 2954.06 Z  M 2166.871 2999.281 L 2166.871 2999.281 L 2166.871 2999.281 Q 2166.871 3010.174 2181.23 3010.009 L 2181.23 3010.009 L 2181.23 3010.009 Q 2187.501 3010.009 2193.03 3006.955 L 2193.03 3006.955 L 2193.03 3006.955 Q 2198.559 3003.902 2201.86 3000.106 L 2201.86 3000.106 L 2201.86 2988.719 L 2187.336 2988.719 L 2187.336 2988.719 Q 2177.764 2988.719 2172.318 2991.112 L 2172.318 2991.112 L 2172.318 2991.112 Q 2166.871 2993.505 2166.871 2999.281 Z  M 2267.71 2978.321 L 2292.136 3010.669 L 2292.136 3010.669 Q 2293.456 3012.319 2293.456 3014.712 L 2293.456 3014.712 L 2293.456 3014.712 Q 2293.456 3017.105 2291.723 3018.673 L 2291.723 3018.673 L 2291.723 3018.673 Q 2289.991 3020.241 2287.845 3020.241 L 2287.845 3020.241 L 2287.845 3020.241 Q 2284.544 3020.241 2282.234 3017.765 L 2282.234 3017.765 L 2258.963 2986.078 L 2247.245 2996.805 L 2247.245 3014.135 L 2247.245 3014.135 Q 2247.245 3016.61 2245.43 3018.426 L 2245.43 3018.426 L 2245.43 3018.426 Q 2243.615 3020.241 2241.139 3020.241 L 2241.139 3020.241 L 2241.139 3020.241 Q 2238.663 3020.241 2236.848 3018.426 L 2236.848 3018.426 L 2236.848 3018.426 Q 2235.033 3016.61 2235.033 3014.135 L 2235.033 3014.135 L 2235.033 2926.334 L 2235.033 2926.334 Q 2235.033 2923.858 2236.765 2922.043 L 2236.765 2922.043 L 2236.765 2922.043 Q 2238.498 2920.227 2241.139 2920.227 L 2241.139 2920.227 L 2241.139 2920.227 Q 2243.615 2920.227 2245.43 2922.043 L 2245.43 2922.043 L 2245.43 2922.043 Q 2247.245 2923.858 2247.245 2926.334 L 2247.245 2926.334 L 2247.245 2981.622 L 2279.428 2951.915 L 2279.428 2951.915 Q 2281.574 2950.264 2284.297 2950.264 L 2284.297 2950.264 L 2284.297 2950.264 Q 2287.02 2950.264 2288.258 2952.162 L 2288.258 2952.162 L 2288.258 2952.162 Q 2289.495 2954.06 2289.495 2955.546 L 2289.495 2955.546 L 2289.495 2955.546 Q 2289.495 2958.516 2287.185 2960.827 L 2287.185 2960.827 L 2267.71 2978.321 Z  M 2317.057 2989.544 L 2317.057 2989.544 Q 2318.212 2998.621 2324.071 3003.985 L 2324.071 3003.985 L 2324.071 3003.985 Q 2329.93 3009.348 2340.245 3009.348 L 2340.245 3009.348 L 2340.245 3009.348 Q 2350.56 3009.348 2357.822 3006.048 L 2357.822 3006.048 L 2357.822 3006.048 Q 2360.132 3004.892 2361.948 3004.81 L 2361.948 3004.81 L 2361.948 3004.81 Q 2363.763 3004.727 2365.331 3006.213 L 2365.331 3006.213 L 2365.331 3006.213 Q 2366.899 3007.698 2366.899 3009.514 L 2366.899 3009.514 L 2366.899 3009.514 Q 2366.899 3013.144 2364.011 3014.63 L 2364.011 3014.63 L 2364.011 3014.63 Q 2361.122 3016.115 2358.812 3017.27 L 2358.812 3017.27 L 2358.812 3017.27 Q 2356.501 3018.426 2353.861 3019.251 L 2353.861 3019.251 L 2353.861 3019.251 Q 2347.754 3020.901 2339.667 3020.901 L 2339.667 3020.901 L 2339.667 3020.901 Q 2322.998 3020.901 2313.839 3011.576 L 2313.839 3011.576 L 2313.839 3011.576 Q 2304.679 3002.252 2304.679 2985.088 L 2304.679 2985.088 L 2304.679 2985.088 Q 2304.679 2970.234 2312.436 2960.332 L 2312.436 2960.332 L 2312.436 2960.332 Q 2321.183 2949.274 2337.027 2949.274 L 2337.027 2949.274 L 2337.027 2949.274 Q 2352.21 2949.274 2360.957 2959.507 L 2360.957 2959.507 L 2360.957 2959.507 Q 2369.209 2969.079 2369.209 2983.437 L 2369.209 2983.437 L 2369.209 2983.437 Q 2369.209 2985.913 2367.476 2987.728 L 2367.476 2987.728 L 2367.476 2987.728 Q 2365.744 2989.544 2363.103 2989.544 L 2363.103 2989.544 L 2317.057 2989.544 Z  M 2337.027 2959.672 L 2337.027 2959.672 L 2337.027 2959.672 Q 2324.979 2959.672 2319.533 2970.399 L 2319.533 2970.399 L 2319.533 2970.399 Q 2317.552 2974.195 2317.057 2979.476 L 2317.057 2979.476 L 2356.996 2979.476 L 2356.996 2979.476 Q 2356.501 2969.904 2349.9 2964.293 L 2349.9 2964.293 L 2349.9 2964.293 Q 2344.619 2959.672 2337.027 2959.672 Z " fill="rgb(3,169,244)"/><path d=" M 1532.956 2925.179 L 1563.819 2925.179 L 1563.819 2925.179 Q 1582.633 2925.179 1592.04 2934.916 L 1592.04 2934.916 L 1592.04 2934.916 Q 1599.797 2942.673 1599.962 2955.216 L 1599.962 2955.216 L 1599.962 2955.216 Q 1599.962 2967.594 1592.04 2975.515 L 1592.04 2975.515 L 1592.04 2975.515 Q 1582.468 2985.253 1563.819 2985.253 L 1563.819 2985.253 L 1539.228 2985.253 L 1539.228 3014.135 L 1539.228 3014.135 Q 1539.228 3016.61 1537.412 3018.426 L 1537.412 3018.426 L 1537.412 3018.426 Q 1535.597 3020.241 1532.956 3020.241 L 1532.956 3020.241 L 1532.956 3020.241 Q 1530.481 3020.241 1528.665 3018.426 L 1528.665 3018.426 L 1528.665 3018.426 Q 1526.85 3016.61 1526.85 3014.135 L 1526.85 3014.135 L 1526.85 2931.45 L 1526.85 2931.45 Q 1526.85 2928.974 1528.665 2927.076 L 1528.665 2927.076 L 1528.665 2927.076 Q 1530.481 2925.179 1532.956 2925.179 L 1532.956 2925.179 Z  M 1539.228 2973.7 L 1562.663 2973.7 L 1562.663 2973.7 Q 1576.527 2973.7 1582.798 2967.759 L 1582.798 2967.759 L 1582.798 2967.759 Q 1587.749 2963.138 1587.584 2955.216 L 1587.584 2955.216 L 1587.584 2955.216 Q 1587.584 2942.673 1575.041 2938.547 L 1575.041 2938.547 L 1575.041 2938.547 Q 1570.09 2936.896 1562.663 2936.731 L 1562.663 2936.731 L 1539.228 2936.731 L 1539.228 2973.7 Z  M 1627.194 2956.206 L 1627.194 2961.982 L 1627.194 2961.982 Q 1636.766 2949.274 1648.484 2949.274 L 1648.484 2949.274 L 1649.144 2949.274 L 1649.144 2949.274 Q 1651.619 2949.274 1653.352 2951.007 L 1653.352 2951.007 L 1653.352 2951.007 Q 1655.085 2952.74 1655.085 2955.381 L 1655.085 2955.381 L 1655.085 2955.381 Q 1655.085 2958.021 1653.27 2959.589 L 1653.27 2959.589 L 1653.27 2959.589 Q 1651.454 2961.157 1648.814 2961.157 L 1648.814 2961.157 L 1648.154 2961.157 L 1648.154 2961.157 Q 1641.387 2961.157 1636.106 2964.458 L 1636.106 2964.458 L 1636.106 2964.458 Q 1630.825 2967.759 1627.194 2973.04 L 1627.194 2973.04 L 1627.194 3014.135 L 1627.194 3014.135 Q 1627.194 3016.61 1625.378 3018.426 L 1625.378 3018.426 L 1625.378 3018.426 Q 1623.563 3020.241 1621.087 3020.241 L 1621.087 3020.241 L 1621.087 3020.241 Q 1618.612 3020.241 1616.796 3018.426 L 1616.796 3018.426 L 1616.796 3018.426 Q 1614.981 3016.61 1614.981 3014.135 L 1614.981 3014.135 L 1614.981 2956.206 L 1614.981 2956.206 Q 1614.981 2953.73 1616.714 2951.832 L 1616.714 2951.832 L 1616.714 2951.832 Q 1618.447 2949.934 1621.087 2949.934 L 1621.087 2949.934 L 1621.087 2949.934 Q 1623.563 2949.934 1625.378 2951.75 L 1625.378 2951.75 L 1625.378 2951.75 Q 1627.194 2953.565 1627.194 2956.206 L 1627.194 2956.206 Z  M 1697.5 2949.274 L 1697.5 2949.274 L 1697.5 2949.274 Q 1713.179 2949.274 1722.751 2959.177 L 1722.751 2959.177 L 1722.751 2959.177 Q 1732.324 2969.244 1731.994 2985.088 L 1731.994 2985.088 L 1731.994 2985.088 Q 1731.994 3001.097 1722.751 3010.999 L 1722.751 3010.999 L 1722.751 3010.999 Q 1713.179 3020.901 1697.5 3020.901 L 1697.5 3020.901 L 1697.5 3020.901 Q 1681.657 3020.901 1672.414 3010.999 L 1672.414 3010.999 L 1672.414 3010.999 Q 1662.842 3001.097 1662.842 2985.088 L 1662.842 2985.088 L 1662.842 2985.088 Q 1662.842 2968.914 1672.414 2959.177 L 1672.414 2959.177 L 1672.414 2959.177 Q 1681.657 2949.274 1697.5 2949.274 Z  M 1682.399 3004.15 L 1682.399 3004.15 L 1682.399 3004.15 Q 1685.618 3007.038 1689.661 3008.358 L 1689.661 3008.358 L 1689.661 3008.358 Q 1693.704 3009.679 1697.5 3009.679 L 1697.5 3009.679 L 1697.5 3009.679 Q 1701.296 3009.679 1705.257 3008.358 L 1705.257 3008.358 L 1705.257 3008.358 Q 1709.218 3007.038 1712.519 3004.067 L 1712.519 3004.067 L 1712.519 3004.067 Q 1719.781 2997.466 1719.781 2984.923 L 1719.781 2984.923 L 1719.781 2984.923 Q 1719.781 2972.71 1712.519 2965.943 L 1712.519 2965.943 L 1712.519 2965.943 Q 1706.412 2960.332 1697.5 2960.497 L 1697.5 2960.497 L 1697.5 2960.497 Q 1682.812 2960.497 1677.201 2973.7 L 1677.201 2973.7 L 1677.201 2973.7 Q 1675.22 2978.486 1675.22 2985.088 L 1675.22 2985.088 L 1675.22 2985.088 Q 1675.22 2991.689 1677.201 2996.475 L 1677.201 2996.475 L 1677.201 2996.475 Q 1679.181 3001.262 1682.399 3004.15 Z  M 1774.244 3010.009 L 1774.244 3010.009 L 1774.244 3010.009 Q 1777.874 3010.009 1779.442 3009.431 L 1779.442 3009.431 L 1779.442 3009.431 Q 1781.01 3008.853 1782.826 3008.853 L 1782.826 3008.853 L 1782.826 3008.853 Q 1784.641 3008.853 1786.126 3010.256 L 1786.126 3010.256 L 1786.126 3010.256 Q 1787.612 3011.659 1787.612 3014.382 L 1787.612 3014.382 L 1787.612 3014.382 Q 1787.612 3017.105 1784.971 3018.261 L 1784.971 3018.261 L 1784.971 3018.261 Q 1779.195 3020.901 1775.069 3020.901 L 1775.069 3020.901 L 1775.069 3020.901 Q 1770.943 3020.901 1767.559 3020.489 L 1767.559 3020.489 L 1767.559 3020.489 Q 1764.176 3020.076 1761.04 3018.261 L 1761.04 3018.261 L 1761.04 3018.261 Q 1753.614 3013.97 1753.614 3003.077 L 1753.614 3003.077 L 1753.614 2961.157 L 1744.041 2961.157 L 1744.041 2961.157 Q 1741.566 2961.157 1741.401 2958.516 L 1741.401 2958.516 L 1741.401 2958.516 Q 1741.401 2957.361 1742.721 2956.371 L 1742.721 2956.371 L 1761.04 2938.382 L 1761.04 2938.382 Q 1762.196 2937.226 1763.351 2937.144 L 1763.351 2937.144 L 1763.351 2937.144 Q 1764.506 2937.061 1765.166 2937.887 L 1765.166 2937.887 L 1765.166 2937.887 Q 1765.827 2938.712 1765.827 2939.867 L 1765.827 2939.867 L 1765.827 2950.595 L 1781.175 2950.595 L 1781.175 2950.595 Q 1783.486 2950.595 1784.971 2952.08 L 1784.971 2952.08 L 1784.971 2952.08 Q 1786.456 2953.565 1786.456 2955.876 L 1786.456 2955.876 L 1786.456 2955.876 Q 1786.456 2958.186 1784.971 2959.672 L 1784.971 2959.672 L 1784.971 2959.672 Q 1783.486 2961.157 1781.175 2961.157 L 1781.175 2961.157 L 1765.827 2961.157 L 1765.827 3002.087 L 1765.827 3002.087 Q 1765.827 3007.203 1768.962 3009.018 L 1768.962 3009.018 L 1768.962 3009.018 Q 1770.613 3010.009 1774.244 3010.009 Z  M 1809.232 2989.544 L 1809.232 2989.544 Q 1810.387 2998.621 1816.246 3003.985 L 1816.246 3003.985 L 1816.246 3003.985 Q 1822.105 3009.348 1832.42 3009.348 L 1832.42 3009.348 L 1832.42 3009.348 Q 1842.735 3009.348 1849.996 3006.048 L 1849.996 3006.048 L 1849.996 3006.048 Q 1852.307 3004.892 1854.122 3004.81 L 1854.122 3004.81 L 1854.122 3004.81 Q 1855.938 3004.727 1857.506 3006.213 L 1857.506 3006.213 L 1857.506 3006.213 Q 1859.074 3007.698 1859.074 3009.514 L 1859.074 3009.514 L 1859.074 3009.514 Q 1859.074 3013.144 1856.185 3014.63 L 1856.185 3014.63 L 1856.185 3014.63 Q 1853.297 3016.115 1850.987 3017.27 L 1850.987 3017.27 L 1850.987 3017.27 Q 1848.676 3018.426 1846.036 3019.251 L 1846.036 3019.251 L 1846.036 3019.251 Q 1839.929 3020.901 1831.842 3020.901 L 1831.842 3020.901 L 1831.842 3020.901 Q 1815.173 3020.901 1806.014 3011.576 L 1806.014 3011.576 L 1806.014 3011.576 Q 1796.854 3002.252 1796.854 2985.088 L 1796.854 2985.088 L 1796.854 2985.088 Q 1796.854 2970.234 1804.611 2960.332 L 1804.611 2960.332 L 1804.611 2960.332 Q 1813.358 2949.274 1829.202 2949.274 L 1829.202 2949.274 L 1829.202 2949.274 Q 1844.385 2949.274 1853.132 2959.507 L 1853.132 2959.507 L 1853.132 2959.507 Q 1861.384 2969.079 1861.384 2983.437 L 1861.384 2983.437 L 1861.384 2983.437 Q 1861.384 2985.913 1859.651 2987.728 L 1859.651 2987.728 L 1859.651 2987.728 Q 1857.918 2989.544 1855.278 2989.544 L 1855.278 2989.544 L 1809.232 2989.544 Z  M 1829.202 2959.672 L 1829.202 2959.672 L 1829.202 2959.672 Q 1817.154 2959.672 1811.707 2970.399 L 1811.707 2970.399 L 1811.707 2970.399 Q 1809.727 2974.195 1809.232 2979.476 L 1809.232 2979.476 L 1849.171 2979.476 L 1849.171 2979.476 Q 1848.676 2969.904 1842.075 2964.293 L 1842.075 2964.293 L 1842.075 2964.293 Q 1836.793 2959.672 1829.202 2959.672 Z  M 1878.383 2956.206 L 1878.383 2956.206 Q 1878.383 2953.4 1880.199 2951.667 L 1880.199 2951.667 L 1880.199 2951.667 Q 1882.014 2949.934 1884.655 2949.934 L 1884.655 2949.934 L 1884.655 2949.934 Q 1887.295 2949.934 1888.946 2951.667 L 1888.946 2951.667 L 1888.946 2951.667 Q 1890.596 2953.4 1890.596 2956.206 L 1890.596 2956.206 L 1890.596 3014.135 L 1890.596 3014.135 Q 1890.596 3016.61 1888.946 3018.426 L 1888.946 3018.426 L 1888.946 3018.426 Q 1887.295 3020.241 1884.655 3020.241 L 1884.655 3020.241 L 1884.655 3020.241 Q 1882.014 3020.241 1880.199 3018.426 L 1880.199 3018.426 L 1880.199 3018.426 Q 1878.383 3016.61 1878.383 3014.135 L 1878.383 3014.135 L 1878.383 2956.206 Z  M 1891.916 2929.139 L 1891.916 2929.635 L 1891.916 2929.635 Q 1891.916 2932.605 1889.936 2934.586 L 1889.936 2934.586 L 1889.936 2934.586 Q 1887.955 2936.566 1884.985 2936.566 L 1884.985 2936.566 L 1884.16 2936.566 L 1884.16 2936.566 Q 1881.189 2936.566 1879.291 2934.586 L 1879.291 2934.586 L 1879.291 2934.586 Q 1877.393 2932.605 1877.393 2929.635 L 1877.393 2929.635 L 1877.393 2929.139 L 1877.393 2929.139 Q 1877.393 2926.169 1879.373 2924.188 L 1879.373 2924.188 L 1879.373 2924.188 Q 1881.354 2922.208 1884.16 2922.208 L 1884.16 2922.208 L 1884.985 2922.208 L 1884.985 2922.208 Q 1887.955 2922.208 1889.936 2924.188 L 1889.936 2924.188 L 1889.936 2924.188 Q 1891.916 2926.169 1891.916 2929.139 L 1891.916 2929.139 Z  M 1947.039 2960.662 L 1947.039 2960.662 L 1947.039 2960.662 Q 1935.157 2960.662 1924.759 2973.7 L 1924.759 2973.7 L 1924.759 3014.135 L 1924.759 3014.135 Q 1924.759 3016.61 1922.944 3018.426 L 1922.944 3018.426 L 1922.944 3018.426 Q 1921.128 3020.241 1918.653 3020.241 L 1918.653 3020.241 L 1918.653 3020.241 Q 1916.177 3020.241 1914.362 3018.426 L 1914.362 3018.426 L 1914.362 3018.426 Q 1912.546 3016.61 1912.546 3014.135 L 1912.546 3014.135 L 1912.546 2956.206 L 1912.546 2956.206 Q 1912.546 2953.565 1914.279 2951.75 L 1914.279 2951.75 L 1914.279 2951.75 Q 1916.012 2949.934 1918.653 2949.934 L 1918.653 2949.934 L 1918.653 2949.934 Q 1921.128 2949.934 1922.944 2951.667 L 1922.944 2951.667 L 1922.944 2951.667 Q 1924.759 2953.4 1924.759 2956.206 L 1924.759 2956.206 L 1924.759 2961.817 L 1924.759 2961.817 Q 1930.205 2956.206 1934.166 2953.73 L 1934.166 2953.73 L 1934.166 2953.73 Q 1941.758 2949.274 1948.772 2949.274 L 1948.772 2949.274 L 1948.772 2949.274 Q 1955.786 2949.274 1960.243 2951.337 L 1960.243 2951.337 L 1960.243 2951.337 Q 1964.699 2953.4 1967.834 2957.196 L 1967.834 2957.196 L 1967.834 2957.196 Q 1974.106 2964.623 1974.106 2975.68 L 1974.106 2975.68 L 1974.106 3014.135 L 1974.106 3014.135 Q 1974.106 3016.61 1972.29 3018.426 L 1972.29 3018.426 L 1972.29 3018.426 Q 1970.475 3020.241 1967.999 3020.241 L 1967.999 3020.241 L 1967.999 3020.241 Q 1965.524 3020.241 1963.708 3018.426 L 1963.708 3018.426 L 1963.708 3018.426 Q 1961.893 3016.61 1961.893 3014.135 L 1961.893 3014.135 L 1961.893 2977.001 L 1961.893 2977.001 Q 1961.893 2969.409 1958.427 2965.035 L 1958.427 2965.035 L 1958.427 2965.035 Q 1954.961 2960.662 1947.039 2960.662 Z " fill="rgb(51,51,51)"/></g></svg>